<svg width="266" height="188" viewBox="0 0 266 188" fill="none" xmlns="http://www.w3.org/2000/svg">
<path d="M20.4064 141.922L20.4105 141.926C33.3665 153.154 51.9751 158.693 76.0826 158.693H125.245L113.512 184.746L112.877 186.157H114.424H146.018H146.665L146.93 185.567L159.012 158.739H232.266H245.687H262H263.527L262.917 157.339L218.232 54.9304L218.228 54.9212L218.224 54.912L195.044 4.58168L194.096 2.52293L193.214 4.61113L171.975 54.9306L136.776 133.089H78.08C62.4597 133.089 51.0636 129.781 43.6972 123.352C36.3678 116.835 32.5967 106.392 32.5967 91.7816C32.5967 77.1669 36.3695 66.7901 43.6936 60.3961C51.06 53.9651 62.4572 50.6561 78.08 50.6561H141.45H142.45V49.6561V26.4145V25.42L141.455 25.4145L76.0882 25.0514L76.0877 25.0514C51.9769 24.9296 33.3644 30.4689 20.4064 41.8226C7.42158 53.1997 1 69.9125 1 91.7816C1 113.77 7.42039 130.544 20.4064 141.922ZM220.189 133.134H170.443L194.782 79.0272H195.849L220.189 133.134Z" fill="#F4F3F7" stroke="#27252E" stroke-width="2"/>
</svg>
